<mxfile host="Electron" agent="Mozilla/5.0 (Windows NT 10.0; Win64; x64) AppleWebKit/537.36 (KHTML, like Gecko) draw.io/24.7.5 Chrome/126.0.6478.183 Electron/31.3.0 Safari/537.36" version="24.7.5">
  <diagram name="Page-1" id="WlKqV_JNCA_5U815uuTf">
    <mxGraphModel dx="1276" dy="678" grid="1" gridSize="10" guides="1" tooltips="1" connect="1" arrows="1" fold="1" page="1" pageScale="1" pageWidth="850" pageHeight="1100" math="0" shadow="0">
      <root>
        <mxCell id="0" />
        <mxCell id="1" parent="0" />
        <mxCell id="-ytK82yWHoJwxgJhQhnP-1" value="User" style="rounded=1;whiteSpace=wrap;html=1;absoluteArcSize=1;arcSize=14;strokeWidth=2;" parent="1" vertex="1">
          <mxGeometry x="444.06" y="50" width="100" height="100" as="geometry" />
        </mxCell>
        <mxCell id="-ytK82yWHoJwxgJhQhnP-2" value="" style="strokeWidth=2;html=1;shape=mxgraph.flowchart.annotation_2;align=left;labelPosition=right;pointerEvents=1;rotation=90;" parent="1" vertex="1">
          <mxGeometry x="469.06" y="-76.56" width="50" height="500.62" as="geometry" />
        </mxCell>
        <mxCell id="-ytK82yWHoJwxgJhQhnP-4" value="Exit Store" style="rounded=1;whiteSpace=wrap;html=1;absoluteArcSize=1;arcSize=14;strokeWidth=2;" parent="1" vertex="1">
          <mxGeometry x="700" y="200" width="100" height="100" as="geometry" />
        </mxCell>
        <mxCell id="-ytK82yWHoJwxgJhQhnP-5" value="View Inventory&lt;div&gt;(sorted list)&lt;/div&gt;" style="rounded=1;whiteSpace=wrap;html=1;absoluteArcSize=1;arcSize=14;strokeWidth=2;" parent="1" vertex="1">
          <mxGeometry x="199.5" y="200" width="100" height="100" as="geometry" />
        </mxCell>
        <mxCell id="-ytK82yWHoJwxgJhQhnP-11" value="" style="strokeWidth=2;html=1;shape=mxgraph.flowchart.annotation_1;align=left;pointerEvents=1;rotation=90;" parent="1" vertex="1">
          <mxGeometry x="185" y="290.13" width="30" height="100" as="geometry" />
        </mxCell>
        <mxCell id="-ytK82yWHoJwxgJhQhnP-12" value="Exit Store" style="rounded=1;whiteSpace=wrap;html=1;absoluteArcSize=1;arcSize=14;strokeWidth=2;" parent="1" vertex="1">
          <mxGeometry x="421" y="350.13" width="60" height="39" as="geometry" />
        </mxCell>
        <mxCell id="-ytK82yWHoJwxgJhQhnP-13" value="Check Points" style="rounded=1;whiteSpace=wrap;html=1;absoluteArcSize=1;arcSize=14;strokeWidth=2;" parent="1" vertex="1">
          <mxGeometry x="219.5" y="351.13" width="60" height="39" as="geometry" />
        </mxCell>
        <mxCell id="-ytK82yWHoJwxgJhQhnP-14" value="Purchase Item" style="rounded=1;whiteSpace=wrap;html=1;absoluteArcSize=1;arcSize=14;strokeWidth=2;" parent="1" vertex="1">
          <mxGeometry x="120" y="351.13" width="60" height="39" as="geometry" />
        </mxCell>
        <mxCell id="-ytK82yWHoJwxgJhQhnP-16" value="" style="line;strokeWidth=2;direction=south;html=1;" parent="1" vertex="1">
          <mxGeometry x="145" y="390.13" width="10" height="50" as="geometry" />
        </mxCell>
        <mxCell id="-ytK82yWHoJwxgJhQhnP-17" value="Enter Product ID" style="rounded=1;whiteSpace=wrap;html=1;absoluteArcSize=1;arcSize=14;strokeWidth=2;" parent="1" vertex="1">
          <mxGeometry x="120" y="430" width="60" height="39" as="geometry" />
        </mxCell>
        <mxCell id="-ytK82yWHoJwxgJhQhnP-28" value="" style="edgeStyle=orthogonalEdgeStyle;rounded=0;orthogonalLoop=1;jettySize=auto;html=1;" parent="1" source="-ytK82yWHoJwxgJhQhnP-18" target="-ytK82yWHoJwxgJhQhnP-26" edge="1">
          <mxGeometry relative="1" as="geometry" />
        </mxCell>
        <mxCell id="-ytK82yWHoJwxgJhQhnP-18" value="" style="line;strokeWidth=2;direction=south;html=1;" parent="1" vertex="1">
          <mxGeometry x="146" y="467.13" width="10" height="50" as="geometry" />
        </mxCell>
        <mxCell id="-ytK82yWHoJwxgJhQhnP-19" value="&lt;b&gt;Print to consol:&amp;nbsp;&lt;/b&gt;&lt;div&gt;product decreased&lt;/div&gt;&lt;div&gt;purchase verified&lt;/div&gt;&lt;div&gt;point balance&lt;/div&gt;&lt;div&gt;&lt;br&gt;&lt;/div&gt;&lt;div&gt;&lt;b&gt;User choice:&lt;/b&gt;&lt;/div&gt;&lt;div&gt;Offer Return&lt;/div&gt;&lt;div&gt;Offer Keep Shopping&lt;/div&gt;" style="rounded=1;whiteSpace=wrap;html=1;absoluteArcSize=1;arcSize=15;strokeWidth=2;" parent="1" vertex="1">
          <mxGeometry x="79.25" y="500" width="143.5" height="118.87" as="geometry" />
        </mxCell>
        <mxCell id="-ytK82yWHoJwxgJhQhnP-23" value="&lt;b&gt;Return product&lt;/b&gt;:&lt;div&gt;product quantity Increased&lt;/div&gt;&lt;div&gt;update and print point balance&lt;/div&gt;" style="rounded=1;whiteSpace=wrap;html=1;absoluteArcSize=1;arcSize=14;strokeWidth=2;" parent="1" vertex="1">
          <mxGeometry x="20" y="670" width="170" height="60" as="geometry" />
        </mxCell>
        <mxCell id="-ytK82yWHoJwxgJhQhnP-26" value="" style="strokeWidth=2;html=1;shape=mxgraph.flowchart.annotation_2;align=left;labelPosition=right;pointerEvents=1;rotation=90;" parent="1" vertex="1">
          <mxGeometry x="135" y="560" width="50" height="174" as="geometry" />
        </mxCell>
        <mxCell id="-ytK82yWHoJwxgJhQhnP-29" value="&lt;div&gt;&lt;b&gt;Keep Shopping:&lt;/b&gt;&lt;/div&gt;&lt;div&gt;Print updated inventory list to screen&lt;/div&gt;" style="rounded=1;whiteSpace=wrap;html=1;absoluteArcSize=1;arcSize=14;strokeWidth=2;" parent="1" vertex="1">
          <mxGeometry x="199.5" y="670" width="170" height="60" as="geometry" />
        </mxCell>
        <mxCell id="-ytK82yWHoJwxgJhQhnP-31" value="" style="line;strokeWidth=2;direction=south;html=1;" parent="1" vertex="1">
          <mxGeometry x="245" y="390.13" width="10" height="50" as="geometry" />
        </mxCell>
        <mxCell id="-ytK82yWHoJwxgJhQhnP-32" value="Print point balance to screen" style="rounded=1;whiteSpace=wrap;html=1;absoluteArcSize=1;arcSize=14;strokeWidth=2;" parent="1" vertex="1">
          <mxGeometry x="211.5" y="430" width="71.5" height="50" as="geometry" />
        </mxCell>
        <mxCell id="-ytK82yWHoJwxgJhQhnP-33" value="" style="line;strokeWidth=2;direction=south;html=1;" parent="1" vertex="1">
          <mxGeometry x="443" y="389.13" width="10" height="50" as="geometry" />
        </mxCell>
        <mxCell id="-ytK82yWHoJwxgJhQhnP-34" value="Print goodbye message" style="rounded=1;whiteSpace=wrap;html=1;absoluteArcSize=1;arcSize=14;strokeWidth=2;" parent="1" vertex="1">
          <mxGeometry x="412.5" y="429" width="71.5" height="50" as="geometry" />
        </mxCell>
        <mxCell id="conJx5qznhiJc5SPVuiY-1" value="" style="strokeWidth=2;html=1;shape=mxgraph.flowchart.annotation_1;align=left;pointerEvents=1;rotation=90;" parent="1" vertex="1">
          <mxGeometry x="286" y="290.13" width="30" height="100" as="geometry" />
        </mxCell>
        <mxCell id="conJx5qznhiJc5SPVuiY-2" value="" style="strokeWidth=2;html=1;shape=mxgraph.flowchart.annotation_1;align=left;pointerEvents=1;rotation=90;" parent="1" vertex="1">
          <mxGeometry x="385.5" y="290.13" width="30" height="100" as="geometry" />
        </mxCell>
        <mxCell id="conJx5qznhiJc5SPVuiY-3" value="Sale Items" style="rounded=1;whiteSpace=wrap;html=1;absoluteArcSize=1;arcSize=14;strokeWidth=2;" parent="1" vertex="1">
          <mxGeometry x="322.5" y="351.13" width="60" height="39" as="geometry" />
        </mxCell>
        <mxCell id="conJx5qznhiJc5SPVuiY-4" value="" style="line;strokeWidth=2;direction=south;html=1;" parent="1" vertex="1">
          <mxGeometry x="344.5" y="390.13" width="10" height="50" as="geometry" />
        </mxCell>
        <mxCell id="conJx5qznhiJc5SPVuiY-5" value="Print List of Sale Items" style="rounded=1;whiteSpace=wrap;html=1;absoluteArcSize=1;arcSize=14;strokeWidth=2;" parent="1" vertex="1">
          <mxGeometry x="314" y="430" width="71.5" height="50" as="geometry" />
        </mxCell>
        <mxCell id="conJx5qznhiJc5SPVuiY-6" value="Flowchart" style="html=1;whiteSpace=wrap;" parent="1" vertex="1">
          <mxGeometry x="695" y="20" width="110" height="50" as="geometry" />
        </mxCell>
        <mxCell id="0S7iOmxlG4Dm0HOt8Lrw-3" value="" style="endArrow=open;endFill=1;html=1;rounded=0;" edge="1" parent="1">
          <mxGeometry width="160" relative="1" as="geometry">
            <mxPoint x="199.5" y="230" as="sourcePoint" />
            <mxPoint x="80" y="110" as="targetPoint" />
            <Array as="points">
              <mxPoint x="80" y="230" />
            </Array>
          </mxGeometry>
        </mxCell>
        <mxCell id="0S7iOmxlG4Dm0HOt8Lrw-4" value="products.txt" style="html=1;align=center;verticalAlign=middle;dashed=0;whiteSpace=wrap;" vertex="1" parent="1">
          <mxGeometry x="24" y="80" width="110" height="30" as="geometry" />
        </mxCell>
        <mxCell id="0S7iOmxlG4Dm0HOt8Lrw-7" value="" style="endArrow=block;dashed=1;endFill=0;endSize=12;html=1;rounded=0;entryX=-0.051;entryY=0.63;entryDx=0;entryDy=0;entryPerimeter=0;" edge="1" parent="1" target="-ytK82yWHoJwxgJhQhnP-5">
          <mxGeometry width="160" relative="1" as="geometry">
            <mxPoint x="51.5" y="110" as="sourcePoint" />
            <mxPoint x="211.5" y="110" as="targetPoint" />
            <Array as="points">
              <mxPoint x="52" y="263" />
            </Array>
          </mxGeometry>
        </mxCell>
      </root>
    </mxGraphModel>
  </diagram>
</mxfile>
